<svg version="1.0" xmlns="http://www.w3.org/2000/svg"
 width="512.000000pt" height="512.000000pt" viewBox="0 0 512.000000 512.000000"
 preserveAspectRatio="xMidYMid meet">

<g transform="translate(0.000000,512.000000) scale(0.100000,-0.100000)"
fill="#000000" stroke="none">
<path d="M2567 5106 c-78 -28 -140 -89 -165 -165 -9 -24 -12 -179 -12 -522 l0
-489 -972 0 c-535 -1 -1004 -5 -1042 -10 -132 -17 -251 -95 -319 -211 -59
-101 -58 -56 -55 -1345 l3 -1179 24 -58 c44 -111 143 -207 258 -250 57 -21 71
-22 571 -25 l512 -3 -2 -167 -3 -167 -165 -5 c-187 -6 -216 -15 -282 -88 -44
-48 -62 -100 -61 -172 1 -93 53 -178 137 -223 l41 -22 1950 0 c1883 0 1951 1
1985 19 49 26 98 74 123 121 l22 40 0 2375 0 2375 -22 41 c-31 58 -104 119
-158 133 -70 18 -2318 15 -2368 -3z m603 -1360 c0 -18 -71 -235 -107 -326
-133 -338 -330 -651 -563 -894 -409 -426 -950 -678 -1625 -756 -132 -15 -473
-24 -598 -15 l-108 7 3 896 c3 993 -1 927 69 1007 19 21 56 49 84 61 l50 24
1398 0 c768 0 1397 -2 1397 -4z m1325 -21 c30 -30 32 -73 5 -107 -57 -73 -175
-4 -140 82 15 37 35 49 78 50 22 0 41 -8 57 -25z m0 -680 c59 -58 5 -158 -75
-140 -35 8 -58 33 -66 73 -5 26 -1 36 24 62 39 38 83 40 117 5z"/>
</g>
</svg>
